<svg width="23" height="23" viewBox="0 0 23 23" fill="none" xmlns="http://www.w3.org/2000/svg">
<path d="M21.9026 10.46L12.5401 1.0975C11.966 0.523328 11.0343 0.523328 10.4593 1.0975L1.09762 10.46C0.52345 11.0342 0.52345 11.9658 1.09762 12.5408L10.4601 21.9033C11.0343 22.4775 11.966 22.4775 12.541 21.9033L21.9035 12.5408C22.4768 11.9658 22.4768 11.0342 21.9026 10.46ZM14.2734 12.6067V10.6667H11.5001C10.581 10.6667 9.83345 11.4142 9.83345 12.3333V15.6667C9.83345 16.1267 9.46012 16.5 9.00012 16.5C8.54012 16.5 8.16678 16.1267 8.16678 15.6667V12.3333C8.16678 10.495 9.66178 9 11.5001 9H14.2734V7.06L17.0476 9.83333L14.2734 12.6067Z" fill="#FFC9B9"/>
</svg>
