<svg width="22" height="22" viewBox="0 0 22 22" fill="none" xmlns="http://www.w3.org/2000/svg">
<path d="M10 0V2.05859C5.80572 2.51486 2.51486 5.80572 2.05859 10H0V12H2.05859C2.51486 16.1943 5.80572 19.4851 10 19.9414V22H12V19.9414C16.1943 19.4851 19.4851 16.1943 19.9414 12H22V10H19.9414C19.4851 5.80572 16.1943 2.51486 12 2.05859V0H10ZM11 4C14.9 4 18 7.1 18 11C18 14.9 14.9 18 11 18C7.1 18 4 14.9 4 11C4 7.1 7.1 4 11 4ZM11 8C10.2044 8 9.44129 8.31607 8.87868 8.87868C8.31607 9.44129 8 10.2044 8 11C8 11.7956 8.31607 12.5587 8.87868 13.1213C9.44129 13.6839 10.2044 14 11 14C11.7956 14 12.5587 13.6839 13.1213 13.1213C13.6839 12.5587 14 11.7956 14 11C14 10.2044 13.6839 9.44129 13.1213 8.87868C12.5587 8.31607 11.7956 8 11 8Z" fill="#FFE3DC"/>
<path d="M10.0541 2.55566L10.5 2.50715V2.05859V0.5H11.5V2.05859V2.50715L11.9459 2.55566C15.9069 2.98655 19.0135 6.09313 19.4443 10.0541L19.4928 10.5H19.9414H21.5V11.5H19.9414H19.4928L19.4443 11.9459C19.0135 15.9069 15.9069 19.0135 11.9459 19.4443L11.5 19.4928V19.9414V21.5H10.5V19.9414V19.4928L10.0541 19.4443C6.09313 19.0135 2.98655 15.9069 2.55566 11.9459L2.50715 11.5H2.05859H0.5V10.5H2.05859H2.50715L2.55566 10.0541C2.98655 6.09313 6.09313 2.98655 10.0541 2.55566ZM18.5 11C18.5 6.82386 15.1761 3.5 11 3.5C6.82386 3.5 3.5 6.82386 3.5 11C3.5 15.1761 6.82386 18.5 11 18.5C15.1761 18.5 18.5 15.1761 18.5 11ZM9.23223 9.23223C9.70107 8.76339 10.337 8.5 11 8.5C11.663 8.5 12.2989 8.76339 12.7678 9.23223C13.2366 9.70107 13.5 10.337 13.5 11C13.5 11.663 13.2366 12.2989 12.7678 12.7678C12.2989 13.2366 11.663 13.5 11 13.5C10.337 13.5 9.70107 13.2366 9.23223 12.7678C8.76339 12.2989 8.5 11.663 8.5 11C8.5 10.337 8.76339 9.70107 9.23223 9.23223Z" stroke="#949494" stroke-opacity="0.4"/>
</svg>
