<svg width="19" height="24" viewBox="0 0 19 24" fill="none" xmlns="http://www.w3.org/2000/svg">
<path d="M9.50016 0.666656C4.43766 0.666656 0.333496 4.77082 0.333496 9.83332C0.333496 15.8617 6.2935 18.7475 7.04016 19.4192C7.80266 20.105 8.43266 21.6425 8.68683 22.5142C8.81016 22.9375 9.15683 23.1517 9.50016 23.1608C9.84433 23.1508 10.1902 22.9367 10.3135 22.5142C10.5677 21.6425 11.1977 20.1058 11.9602 19.4192C12.7068 18.7475 18.6668 15.8617 18.6668 9.83332C18.6668 4.77082 14.5627 0.666656 9.50016 0.666656ZM12.5893 10.4225L9.256 13.7558C9.0935 13.9183 8.88016 14 8.66683 14C8.4535 14 8.24016 13.9183 8.07766 13.7558C7.75183 13.43 7.75183 12.9033 8.07766 12.5775L10.8218 9.83332L8.07766 7.08916C7.75183 6.76332 7.75183 6.23666 8.07766 5.91082C8.4035 5.58499 8.93016 5.58499 9.256 5.91082L12.5893 9.24416C12.9152 9.56999 12.9152 10.0967 12.5893 10.4225Z" fill="#FFC9B9"/>
</svg>
