<svg width="77" height="227" viewBox="0 0 77 227" fill="none" xmlns="http://www.w3.org/2000/svg">
<path d="M17.5 0H15.8V177H17.5V0Z" fill="#6B706C"/>
<path d="M21.7 179.7H11.7L13.7 162H19.7L21.7 179.7Z" fill="#F0FCFC"/>
<path d="M11.5 190.7C11.5 193.6 13.8 195.9 16.7 195.9C19.6 195.9 21.9 193.6 21.9 190.7H11.5Z" fill="white"/>
<path d="M0 190.7C0 181.5 7.5 174 16.7 174C25.9 174 33.4 181.5 33.4 190.7H0Z" fill="#B3CBD2"/>
<path d="M61 0H59V208H61V0Z" fill="#6B706C"/>
<path d="M64.7 210.6H54.7L56.7 193H62.7L64.7 210.6Z" fill="#F0FCFC"/>
<path d="M54.5 221.6C54.5 224.5 56.8 226.8 59.7 226.8C62.6 226.8 64.9 224.5 64.9 221.6H54.5Z" fill="white"/>
<path d="M43 221.6C43 212.4 50.5 204.9 59.7 204.9C68.9 204.9 76.4 212.4 76.4 221.6H43Z" fill="#B3CBD2"/>
</svg>
