<svg width="116" height="191" viewBox="0 0 116 191" fill="none" xmlns="http://www.w3.org/2000/svg">
<g clip-path="url(#clip0_1_1362)">
<path d="M58.1874 157.901C55.6066 146.482 53.9642 134.908 50.3667 123.724C48.7244 118.641 47.0038 113.557 44.814 108.708C42.6242 103.703 39.5741 99.167 36.7586 94.3964C36.3676 93.6925 35.1945 94.3182 35.5855 95.1002C38.3228 99.8709 41.4511 104.329 43.6409 109.412C45.9089 114.574 47.7859 119.97 49.4282 125.366C52.7911 136.159 54.3553 147.343 56.8579 158.37C57.0925 159.074 58.3438 158.683 58.1874 157.901Z" fill="#687B91"/>
<path d="M57.7183 129.277C57.0927 122.551 56.1542 115.825 55.2157 109.099C54.199 102.295 52.8695 95.6478 51.1489 89.0002C49.5066 82.7436 46.8475 76.878 44.5013 70.8561C44.1885 70.074 42.9372 70.3868 43.25 71.1689C45.518 76.9563 48.177 82.6654 49.7412 88.6873C51.5399 95.4914 52.9477 102.452 53.9644 109.412C55.0593 116.686 55.9978 123.881 56.6234 131.232C57.1709 137.489 57.0927 143.745 58.2658 149.924C58.4222 150.784 59.6735 150.393 59.5171 149.611C58.2658 142.807 58.344 136.003 57.7183 129.277Z" fill="#687B91"/>
<path d="M59.8303 68.1971C59.0483 60.5328 57.0149 53.1813 55.1379 45.7517C54.9033 44.8914 53.652 45.2824 53.8866 46.0645C55.8418 53.7288 58.0316 61.4713 58.6572 69.3702C59.2829 77.0346 59.7521 136.003 58.8918 143.589C58.8136 144.449 60.1432 144.449 60.2214 143.589C61.0816 135.612 60.6124 76.2525 59.8303 68.1971Z" fill="#687B91"/>
<path d="M57.1684 51.7735C60.2185 49.8966 66.2404 44.1092 67.0225 40.7463C68.2738 35.0372 64.3634 34.7244 61.4698 31.0486C63.1121 31.2832 64.4417 31.9871 66.2404 31.1268C67.8046 30.3448 65.3019 25.1049 62.9557 22.7586C56.9338 16.7367 54.2747 14.3905 48.8784 11.4186C45.1245 9.30701 38.2422 13.5302 37.4602 13.2174C36.4435 12.7481 42.8565 8.44673 41.8398 8.05569C31.1254 4.37995 16.1096 5.78768 13.9198 9.38521C11.4172 13.6084 44.8116 23.0715 51.2246 31.5179C53.8055 34.959 54.1965 37.8526 55.6042 41.9194C56.3863 44.3438 53.0234 54.2762 57.1684 51.7735Z" fill="#687B91"/>
<path d="M37.3842 81.3358C37.1496 81.1794 36.9932 86.8885 35.7419 87.1232C34.4906 87.2796 34.8034 86.4975 34.7252 85.4026C34.647 84.3859 34.647 83.3692 34.4906 82.3525C33.9431 79.3807 31.3623 75.5485 28.3904 74.7664C27.9212 74.61 27.4519 75.0793 27.6083 75.5485C27.9994 77.1126 27.9212 78.5204 27.6083 80.0063C26.9045 78.755 26.8263 77.2691 25.8096 76.1742C24.6365 75.001 22.6813 75.0793 21.1953 74.5318C20.2568 74.219 8.76038 68.4316 8.76038 68.4316C8.68218 68.5098 10.4027 75.3139 12.0451 77.5819C13.531 79.5371 17.1286 80.632 18.4581 82.5871C16.5811 82.8218 13.3746 82.8218 14.0003 85.0116C14.3131 86.2629 16.3465 87.3578 17.285 88.1399C18.7709 89.2348 19.8658 89.704 21.5864 90.3297C22.212 90.5643 23.7762 91.1117 23.698 92.0502C23.698 92.3631 23.1505 92.6759 22.9941 92.9105C22.7595 93.5362 22.212 93.9272 22.0556 94.6311C21.821 95.726 22.3684 96.8991 23.2287 97.6029C25.2621 99.1671 30.0328 97.2901 32.2226 98.2286C31.1277 100.34 25.5749 99.6363 26.8263 103.156C27.6865 105.58 31.6751 106.675 33.9431 106.831C42.1549 107.301 50.3666 90.9553 37.3842 81.3358Z" fill="#A0BEC7"/>
<path d="M42.6249 52.2427C42.2339 51.8517 41.6864 52.0863 41.53 52.5556C41.139 53.4941 41.139 54.1979 41.139 55.2146C41.2172 55.9967 41.8429 61.4712 39.8095 58.5775C39.1838 57.7172 39.3402 55.8403 38.871 54.7454C38.4017 53.5723 37.5415 52.6338 36.6812 51.7735C33.0836 48.2542 27.2181 45.4387 22.1346 46.69C21.7436 46.7682 21.5872 47.1593 21.6654 47.4721C21.9782 48.8798 23.1513 49.8183 24.168 50.7568C24.5591 51.1478 26.6707 53.2594 24.7937 53.4941C23.8552 53.4158 21.509 51.1478 21.0397 50.835C18.9281 49.1144 16.8947 47.3157 14.3921 46.299C11.5767 45.2041 8.52657 45.2823 5.71111 43.9528C4.92904 43.6399 15.0178 54.7454 16.6601 55.7621C20.023 57.9519 24.0898 58.5775 27.6873 60.3763C31.9105 62.4879 35.5863 65.7726 38.6364 69.2919C40.6697 71.6381 41.6864 74.9228 43.798 77.1126C47.2392 80.7102 50.9931 79.6153 51.7752 71.951C52.9483 61.1584 47.3174 56.3877 42.6249 52.2427Z" fill="#A0BEC7"/>
<path d="M51.6178 17.5188C48.8024 15.0161 44.892 12.3571 41.2163 11.3404C40.6688 11.184 40.356 11.8096 40.5124 12.2789C40.9034 13.5302 41.3727 14.0777 40.747 15.4072C40.0432 16.8931 40.1214 16.5021 39.1829 15.4854C38.1662 14.4687 38.088 12.0443 37.0713 11.1058C35.1161 9.22881 31.284 8.0557 28.7813 7.03901C28.3903 6.88259 27.921 7.11721 27.8428 7.58646C27.6864 8.60315 28.7031 11.4186 29.0159 12.4353C29.4852 13.9212 29.8762 14.5469 29.2506 16.1893C28.3903 18.3791 27.6864 17.3624 26.4351 16.111C24.2453 13.9212 21.8991 11.9661 19.24 10.4019C13.0617 6.72618 5.8666 4.45817 0.15747 0.0785616C-1.17205 -0.938132 5.47556 13.843 10.6372 17.8316C15.5643 21.742 21.6645 23.6971 27.53 25.8087C39.965 30.2666 53.0256 37.227 55.2154 51.6171C55.2936 52.2428 56.2321 52.3992 56.4667 51.7735C57.2488 49.8966 58.5783 41.2938 58.8911 38.8694C59.3604 34.7244 58.9693 30.5794 57.5616 26.5908C56.3103 23.1497 54.4333 19.9432 51.6178 17.5188Z" fill="#A0BEC7"/>
<path d="M108.16 76.8782C105.58 77.8167 103.624 79.6154 101.513 81.336C100.652 82.0398 99.0101 83.9168 97.837 84.3079C95.4126 85.0899 97.3678 81.4142 96.2729 80.7885C94.9433 80.0065 92.2843 80.7103 91.3458 82.1963C89.6252 84.9335 89.6252 88.6875 87.9829 89.1567C87.0444 89.3913 85.4803 87.749 84.5418 87.4362C83.6033 87.1233 82.6648 87.1233 81.7263 87.5144C80.0058 88.14 78.8326 89.7042 78.0506 91.3465C77.0339 93.6145 75.0005 105.267 77.6595 107.926C84.7764 115.043 95.4126 106.128 94.8651 99.7929C94.5523 96.821 93.6138 94.4748 96.6639 92.5196C98.6191 91.1901 100.965 90.5644 103.077 89.4695C107.848 87.0451 109.49 84.3861 109.49 79.6154C109.568 76.5653 108.63 76.7218 108.16 76.8782Z" fill="#687B91"/>
<path d="M86.8908 92.5196C83.0586 94.4748 81.1816 99.48 79.6175 103.156C77.4277 108.161 75.7853 113.479 74.7686 118.875C72.657 130.45 73.5955 142.259 73.5955 153.99C73.5955 154.851 74.9251 154.851 74.9251 153.99C74.9251 143.432 74.143 132.718 75.5507 122.16C76.2546 116.92 77.5841 111.837 79.4611 106.91C81.0252 102.765 83.2932 95.7261 87.5946 93.6145C88.2985 93.3017 87.6728 92.1286 86.8908 92.5196Z" fill="#687B91"/>
<path d="M99.5556 44.7348C97.7569 44.3438 95.8017 44.031 94.0029 44.5002C91.8913 45.0477 90.8746 46.6118 89.1541 47.8631C85.4783 50.444 85.7912 47.081 83.0539 47.081C81.7244 47.081 80.8641 48.1759 80.4731 49.3491C79.691 51.6953 81.568 53.8069 80.082 55.9185C78.9871 57.4044 79.2218 57.1698 78.0486 55.9185C77.6576 55.4492 77.3448 54.9018 76.9537 54.5107C76.5627 54.1197 76.3281 53.8069 75.8588 53.6505C72.887 52.8684 70.3061 57.3262 69.9151 59.5942C69.7587 60.4545 70.9318 64.8341 69.4458 64.8341C65.8483 64.8341 64.597 67.4149 65.5355 69.9176C66.474 72.5766 74.2165 75.7831 75.2332 75.2357C72.7305 81.3358 70.4625 87.5924 68.9766 94.0054C66.0047 106.206 65.5355 118.875 65.5355 131.467C65.5355 132.327 66.865 132.327 66.865 131.467C66.865 119.814 67.256 108.161 69.6805 96.7426C70.9318 91.1117 72.6523 85.559 74.6857 80.1627C75.3114 78.5204 75.937 76.487 76.7191 74.4536C77.5012 73.9843 83.4449 69.0573 85.7912 67.2585C90.1708 63.8956 95.2542 61.7058 99.9467 58.7339C101.98 57.4826 103.857 56.0749 105.578 54.4325C106.672 53.4158 108.628 51.8517 108.471 50.0529C108.158 46.8464 101.902 45.2041 99.5556 44.7348Z" fill="#687B91"/>
<path d="M94.5497 64.7557C98.1472 62.0967 109.956 55.6055 112.303 54.1195C115.666 52.0079 118.012 44.5001 113.085 43.3269C107.219 41.9974 103.856 54.1195 97.9126 54.3542C97.2087 52.3208 97.0523 46.7681 94.9407 47.5501C92.9073 48.3322 88.9187 50.2092 88.2149 52.2426C85.8686 59.2812 85.634 60.5325 83.2878 60.8454C81.1762 61.1582 82.7404 58.0299 81.2544 57.6389C80.1595 57.326 78.7518 58.4991 78.0479 59.1248C74.1376 62.8788 73.5901 78.9112 74.6068 78.5984C77.5787 77.8163 80.0031 74.3752 82.5839 72.8893C86.8071 70.5431 90.6393 67.6494 94.5497 64.7557Z" fill="#A0BEC7"/>
<path d="M39.3401 134.282V143.745C39.3401 151.566 41.2953 159.308 44.971 166.191L54.3559 183.865H75.6282L85.0131 166.191C88.6889 159.308 90.644 151.566 90.644 143.745V134.282H39.3401Z" fill="#92A5BA"/>
<path d="M90.8032 134.282H39.1083C37.7787 134.282 36.6838 133.187 36.6838 131.858C36.6838 130.528 37.7787 129.433 39.1083 129.433H90.8815C92.211 129.433 93.3059 130.528 93.3059 131.858C93.3059 133.187 92.211 134.282 90.8032 134.282Z" fill="#68717A"/>
<path d="M75.4755 183.787H54.4377V190.2H75.4755V183.787Z" fill="#68717A"/>
<path d="M90.569 134.282V143.745C90.569 151.566 88.6138 159.308 84.9381 166.19L75.5532 183.865H54.3591L51.1526 177.843C72.2685 168.928 81.0277 150.236 84.5471 134.282H90.569Z" fill="#687B90"/>
</g>
<defs>
<clipPath id="clip0_1_1362">
<rect width="115.903" height="190.2" fill="white"/>
</clipPath>
</defs>
</svg>
