<svg width="265" height="303" viewBox="0 0 265 303" fill="none" xmlns="http://www.w3.org/2000/svg">
<g clip-path="url(#clip0_1_1289)">
<path d="M243.573 17.4114H21.448V291.872H243.573V17.4114Z" fill="#FEFDF7"/>
<path d="M228.973 17.4111L21.4414 214.878V212.161L226.054 17.4111H228.973Z" fill="#FEFDF7"/>
<path d="M179.254 17.4111L21.4414 167.675V164.857L176.335 17.4111H179.254Z" fill="#FEFDF7"/>
<path d="M208.24 17.4111L21.4414 195.252V193.843L206.831 17.4111H208.24Z" fill="#FEFDF7"/>
<path d="M123.999 17.4111L21.4414 115.037V113.628L122.59 17.4111H123.999Z" fill="#FEFDF7"/>
<path d="M243.566 30.7971V40.4591L21.4414 251.815V242.153L243.566 30.7971Z" fill="#FEFDF7"/>
<path d="M143.223 17.4111L21.4414 133.355V123.693L133.057 17.4111H143.223Z" fill="#FEFDF7"/>
<path d="M243.575 103.665V106.483L48.7254 291.872H45.8066L243.575 103.665Z" fill="#FEFDF7"/>
<path d="M243.57 178.444V189.515L135.98 291.872H124.305L243.57 178.444Z" fill="#FEFDF7"/>
<path d="M243.566 62.7017V87.6618L28.9898 291.872H21.4414V274.058L243.566 62.7017Z" fill="#FEFDF7"/>
<path d="M243.573 162.542V163.851L109.01 291.872H107.601L243.573 162.542Z" fill="#FEFDF7"/>
<path d="M82.4348 17.4114H79.9187V291.872H82.4348V17.4114Z" fill="#6B706C"/>
<path d="M185.101 17.4114H182.585V291.872H185.101V17.4114Z" fill="#6B706C"/>
<path d="M243.541 102.148V99.6318L21.4158 99.6318V102.148L243.541 102.148Z" fill="#6B706C"/>
<path d="M243.556 204.719V202.203L21.4315 202.203V204.719L243.556 204.719Z" fill="#6B706C"/>
<path d="M21.4466 17.4114H18.9304V291.872H21.4466V17.4114Z" fill="#6B706C"/>
<path d="M246.079 17.4114H243.563V291.872H246.079V17.4114Z" fill="#6B706C"/>
<path d="M246.028 17.4702V14.9541L18.8708 14.9541V17.4702L246.028 17.4702Z" fill="#6B706C"/>
<path d="M246.064 294.384V291.868L18.9072 291.868V294.384L246.064 294.384Z" fill="#5B3E1E"/>
<path d="M263.088 11.8751H1.91227C0.905811 11.8751 0 10.9693 0 9.9628C0 8.8557 0.905811 8.05054 1.91227 8.05054H263.088C264.094 8.05054 265 8.95635 265 9.9628C265 10.9693 264.094 11.8751 263.088 11.8751Z" fill="#FFECD9"/>
<path d="M5.4316 9.96351C5.4316 12.379 4.72708 14.2913 3.82127 14.2913C2.91546 14.2913 2.21094 12.379 2.21094 9.96351C2.21094 7.54801 2.91546 5.63574 3.82127 5.63574C4.72708 5.63574 5.4316 7.54801 5.4316 9.96351Z" fill="#FFECD9"/>
<path d="M262.481 9.96351C262.481 12.379 261.777 14.2913 260.871 14.2913C259.965 14.2913 259.261 12.379 259.261 9.96351C259.261 7.54801 259.965 5.63574 260.871 5.63574C261.777 5.63574 262.481 7.54801 262.481 9.96351Z" fill="#FFECD9"/>
<path d="M56.6612 2.94261e-05C55.7554 -0.100616 54.8496 0.201321 54.2457 0.805195C53.038 2.01294 51.5283 2.81811 49.8173 2.81811H48.0057C46.2947 2.81811 44.7851 2.01294 43.4767 0.805195C42.9734 0.301966 42.2689 2.94261e-05 41.4637 2.94261e-05C40.6586 2.94261e-05 39.9541 0.301966 39.4508 0.805195C38.2431 2.01294 36.6328 2.81811 34.9218 2.81811H33.1102C31.3992 2.81811 29.8895 2.01294 28.5811 0.805195C28.0779 0.301966 27.3734 2.94261e-05 26.5682 2.94261e-05C25.763 2.94261e-05 25.0585 0.301966 24.5553 0.805195C23.3475 2.01294 21.7372 2.81811 20.0262 2.81811H18.2146C16.5036 2.81811 14.9939 2.01294 13.7862 0.805195C13.1823 0.201321 12.2765 -0.100616 11.3707 2.94261e-05C9.86101 0.201321 8.75391 1.61036 8.75391 3.12005V299.22C8.75391 300.729 9.86101 302.138 11.3707 302.34C12.2765 302.44 13.1823 302.138 13.7862 301.534C14.9939 300.327 16.5036 299.522 18.2146 299.522H20.0262C21.7372 299.522 23.2469 300.327 24.5553 301.534C25.0585 302.038 25.763 302.34 26.5682 302.34C27.3734 302.34 28.0779 302.038 28.5811 301.534C29.7889 300.327 31.3992 299.522 33.1102 299.522H34.9218C36.6328 299.522 38.1424 300.327 39.4508 301.534C39.9541 302.038 40.6586 302.34 41.4637 302.34C42.2689 302.34 42.9734 302.038 43.4767 301.534C44.6844 300.327 46.2947 299.522 48.0057 299.522H49.8173C51.5283 299.522 53.038 300.327 54.2457 301.534C54.8496 302.138 55.7554 302.44 56.6612 302.34C58.1709 302.138 59.278 300.729 59.278 299.22V3.12005C59.278 1.61036 58.1709 0.201321 56.6612 2.94261e-05ZM22.5424 11.6749H17.4094C16.3023 11.6749 15.4972 10.8698 15.4972 9.76266C15.4972 8.65556 16.3023 7.85039 17.4094 7.85039H22.5424C23.6495 7.85039 24.4546 8.65556 24.4546 9.76266C24.4546 10.8698 23.5488 11.6749 22.5424 11.6749ZM35.1231 11.6749H32.9089C31.8018 11.6749 30.9966 10.8698 30.9966 9.76266C30.9966 8.65556 31.8018 7.85039 32.9089 7.85039H35.1231C36.2302 7.85039 37.0353 8.65556 37.0353 9.76266C37.0353 10.8698 36.2302 11.6749 35.1231 11.6749ZM50.6225 11.6749H45.4896C44.4831 11.6749 43.5773 10.8698 43.5773 9.76266C43.5773 8.65556 44.4831 7.85039 45.4896 7.85039H50.6225C51.7296 7.85039 52.5348 8.65556 52.5348 9.76266C52.5348 10.8698 51.7296 11.6749 50.6225 11.6749Z" fill="#B3CBD2"/>
<path d="M25.1633 39.8561C25.1633 78.504 24.8613 117.253 24.8613 155.901C24.8613 157.209 26.8742 157.209 26.8742 155.901C26.8742 117.253 27.1762 78.504 27.1762 39.8561C27.1762 38.5477 25.1633 38.5477 25.1633 39.8561Z" fill="#A0BEC7"/>
<path d="M36.8398 95.6136V117.051C36.8398 118.36 38.8528 118.36 38.8528 117.051V95.6136C38.8528 94.3052 36.8398 94.3052 36.8398 95.6136Z" fill="#A0BEC7"/>
<path d="M39.8567 174.419V286.84C39.8567 288.149 41.8696 288.149 41.8696 286.84V174.419C41.8696 173.111 39.8567 173.111 39.8567 174.419Z" fill="#A0BEC7"/>
<path d="M30.8018 199.279V250.91C30.8018 252.218 32.8147 252.218 32.8147 250.91V199.279C32.8147 197.97 30.8018 197.97 30.8018 199.279Z" fill="#A0BEC7"/>
<path d="M22.7549 226.051V254.634C22.7549 255.943 24.7678 255.943 24.7678 254.634V226.151C24.7678 224.742 22.7549 224.742 22.7549 226.051Z" fill="#A0BEC7"/>
<path d="M18.1184 262.685V289.155C18.1184 290.463 20.1313 290.463 20.1313 289.155V262.685C20.1313 261.377 18.1184 261.377 18.1184 262.685Z" fill="#A0BEC7"/>
<path d="M46.5996 263.692V280.097C46.5996 281.405 48.6125 281.405 48.6125 280.097V263.692C48.6125 262.383 46.5996 262.383 46.5996 263.692Z" fill="#A0BEC7"/>
<path d="M48.3115 87.5623V134.866C48.3115 136.174 50.3244 136.174 50.3244 134.866V87.5623C50.3244 86.254 48.3115 86.254 48.3115 87.5623Z" fill="#A0BEC7"/>
<path d="M253.622 2.94261e-05C252.716 -0.100616 251.811 0.201321 251.207 0.805195C249.999 2.01294 248.489 2.81811 246.778 2.81811H244.967C243.256 2.81811 241.746 2.01294 240.438 0.805195C239.934 0.301966 239.129 2.94261e-05 238.425 2.94261e-05C237.62 2.94261e-05 236.915 0.301966 236.412 0.805195C235.204 2.01294 233.594 2.81811 231.883 2.81811H230.071C228.36 2.81811 226.85 2.01294 225.542 0.805195C225.039 0.301966 224.334 2.94261e-05 223.529 2.94261e-05C222.724 2.94261e-05 222.019 0.301966 221.516 0.805195C220.308 2.01294 218.698 2.81811 216.987 2.81811H215.176C213.465 2.81811 211.955 2.01294 210.747 0.805195C210.143 0.201321 209.237 -0.100616 208.332 2.94261e-05C206.822 0.201321 205.715 1.61036 205.715 3.12005V299.22C205.715 300.729 206.822 302.138 208.332 302.34C209.237 302.44 210.143 302.138 210.747 301.534C211.955 300.327 213.465 299.522 215.176 299.522H216.987C218.698 299.522 220.208 300.327 221.516 301.534C222.019 302.038 222.724 302.34 223.529 302.34C224.334 302.34 225.039 302.038 225.542 301.534C226.75 300.327 228.36 299.522 230.071 299.522H231.883C233.594 299.522 235.103 300.327 236.412 301.534C236.915 302.038 237.62 302.34 238.425 302.34C239.23 302.34 239.934 302.038 240.438 301.534C241.645 300.327 243.256 299.522 244.967 299.522H246.778C248.489 299.522 249.999 300.327 251.207 301.534C251.811 302.138 252.716 302.44 253.622 302.34C255.132 302.138 256.239 300.729 256.239 299.22V3.12005C256.239 1.61036 255.132 0.201321 253.622 2.94261e-05ZM219.403 11.6749H214.37C213.263 11.6749 212.458 10.8698 212.458 9.76266C212.458 8.65556 213.263 7.85039 214.37 7.85039H219.503C220.61 7.85039 221.416 8.65556 221.416 9.76266C221.315 10.8698 220.51 11.6749 219.403 11.6749ZM232.084 11.6749H229.87C228.763 11.6749 227.958 10.8698 227.958 9.76266C227.958 8.65556 228.763 7.85039 229.87 7.85039H232.084C233.191 7.85039 233.996 8.65556 233.996 9.76266C233.996 10.8698 233.09 11.6749 232.084 11.6749ZM247.583 11.6749H242.451C241.444 11.6749 240.538 10.8698 240.538 9.76266C240.538 8.65556 241.444 7.85039 242.451 7.85039H247.583C248.691 7.85039 249.496 8.65556 249.496 9.76266C249.496 10.8698 248.59 11.6749 247.583 11.6749Z" fill="#B3CBD2"/>
<path d="M222.025 39.8561C222.025 78.504 221.723 117.253 221.723 155.901C221.723 157.209 223.736 157.209 223.736 155.901C223.736 117.253 224.038 78.504 224.038 39.8561C224.038 38.5477 222.025 38.5477 222.025 39.8561Z" fill="#A0BEC7"/>
<path d="M233.799 95.6136V117.051C233.799 118.36 235.812 118.36 235.812 117.051V95.6136C235.812 94.3052 233.799 94.3052 233.799 95.6136Z" fill="#A0BEC7"/>
<path d="M236.824 174.419V286.84C236.824 288.149 238.837 288.149 238.837 286.84V174.419C238.837 173.111 236.824 173.111 236.824 174.419Z" fill="#A0BEC7"/>
<path d="M227.761 199.279V250.91C227.761 252.218 229.774 252.218 229.774 250.91V199.279C229.774 197.97 227.761 197.97 227.761 199.279Z" fill="#A0BEC7"/>
<path d="M219.709 226.051V254.634C219.709 255.943 221.722 255.943 221.722 254.634V226.151C221.722 224.742 219.709 224.742 219.709 226.051Z" fill="#A0BEC7"/>
<path d="M214.981 262.685V289.155C214.981 290.463 216.994 290.463 216.994 289.155V262.685C216.994 261.377 214.981 261.377 214.981 262.685Z" fill="#A0BEC7"/>
<path d="M243.461 263.692V280.097C243.461 281.405 245.474 281.405 245.474 280.097V263.692C245.474 262.383 243.461 262.383 243.461 263.692Z" fill="#A0BEC7"/>
<path d="M245.173 87.5623V134.866C245.173 136.174 247.186 136.174 247.186 134.866V87.5623C247.186 86.254 245.173 86.254 245.173 87.5623Z" fill="#A0BEC7"/>
</g>
<defs>
<clipPath id="clip0_1_1289">
<rect width="265" height="302.34" fill="white"/>
</clipPath>
</defs>
</svg>
